<svg enable-background="new -219 244 110 64" height="64" viewBox="-219 244 110 64" width="110" xmlns="http://www.w3.org/2000/svg" xmlns:xlink="http://www.w3.org/1999/xlink"><mask id="a" height="53.8" maskUnits="userSpaceOnUse" width="80.8" x="-203.3" y="249.1"><path d="m-199.1 249.1h72.3c2.3 0 4.2 1.9 4.2 4.2v45.4c0 2.3-1.9 4.2-4.2 4.2h-72.3c-2.3 0-4.2-1.9-4.2-4.2v-45.4c0-2.3 1.9-4.2 4.2-4.2z" fill="#fff"/></mask><g mask="url(#a)"><path d="m-203.3 249.1h80.8v53.8h-80.8z" fill="#eb6f93"/></g><g fill="#fff"><g transform="translate(20 44)"><path d="m-197.9 242.1h-2.4c0 2-.9 3.8-2.5 4.9l-.9.7 3.7 5h3l-3.4-4.6c1.6-1.6 2.5-3.7 2.5-6z"/><path d="m-206.5 242.1h2.5v10.6h-2.5z"/><path d="m-196.3 242.1h2.3v10.6h-2.3z"/><path d="m-173.6 245.2c-.9 0-1.7.3-2.3 1v-.8h-2.2v7.4h2.2v-3.9c0-1.1.8-1.7 1.7-1.7 1 0 1.5.6 1.5 1.7v3.9h2.2v-4.7c0-1.8-1.4-2.9-3.1-2.9z"/><path d="m-187 245.4v.5c-.6-.4-1.4-.7-2.2-.7-2.2 0-3.9 1.7-3.9 3.9 0 2.1 1.7 3.9 3.9 3.9.8 0 1.6-.2 2.2-.7v.5h2.2v-7.4zm-2 5.5c-1.1 0-2-.8-2-1.9s.9-1.9 2-1.9 2 .8 2 1.9-.9 1.9-2 1.9z"/><path d="m-181.3 246.3v-1h-2.3v7.4h2.3v-3.4c0-1.2 1.3-1.8 2.1-1.8v-2.1c-.9 0-1.7.4-2.1.9z"/><path d="m-163.6 245.4v.5c-.6-.4-1.4-.7-2.2-.7-2.2 0-3.9 1.7-3.9 3.9 0 2.1 1.7 3.9 3.9 3.9.8 0 1.6-.2 2.2-.7v.5h2.2v-7.4zm-2 5.5c-1.1 0-2-.8-2-1.9s.9-1.9 2-1.9 2 .8 2 1.9-.9 1.9-2 1.9z"/><path d="m-159.1 250.1c-.8 0-1.4.6-1.4 1.4s.6 1.4 1.4 1.4 1.4-.6 1.4-1.4-.6-1.4-1.4-1.4z"/></g><g transform="translate(36 5)"><path d="m-201.8 269.1c.6.6.6 1.5 0 2.1l-.1.1c-.6.6-1.5.6-2.1 0l-3.2-3.2c-.9-.9-1-2-.5-2.6l.1-.1c.5-.5 1.2-.5 1.8-.1.3.2.6.2.8-.1s.2-.6-.1-.8c-1-.8-2.4-.7-3.3.2l-.1.1c-1 1.1-.8 2.9.5 4.2l3.2 3.2c1 1 2.7 1 3.7-.1l.1-.1c1-1 1-2.7-.1-3.7-.2-.2-.6-.2-.8 0-.1.3-.1.7.1.9z"/><path d="m-203.7 251.8 1.3 10.9c0 .3.3.5.6.5s.5-.3.5-.6l-1.3-10.9v-.1c-.2-.9.3-1.9 1.1-2.1.4-.1.9 0 1.2.2.4.2.6.6.7 1l2.3 9.8c.1.3.4.5.7.4s.5-.4.4-.7l-2.3-9.8c-.1-.7-.6-1.3-1.2-1.8-.6-.4-1.4-.6-2.1-.4-1.4.4-2.3 2-1.9 3.6z"/><path d="m-191.6 264.5 2.6-13c.3-1.4-.5-2.8-1.9-3.2-1.6-.4-3.1.5-3.5 2l-2.9 9.9c-.1.3.1.6.4.7s.6-.1.7-.4l2.9-9.9c.2-.9 1.2-1.5 2.1-1.2.8.2 1.3 1 1.1 1.9l-2.6 13c-.1.3.1.6.5.7.2 0 .6-.2.6-.5z"/><path d="m-198.2 277.1c-4.1 0-7.6-3-7.6-7.4 0-.3-.3-.6-.6-.6s-.6.3-.6.6c0 5 4 8.5 8.8 8.5.3 0 .6-.3.6-.6s-.2-.5-.6-.5z"/><path d="m-200.2 266.9c-.1.3-.3.6-.6.8l-.1.1c-.7.4-1.6.3-2-.4l-2.5-3.8c-.7-1.1-.6-2.2.1-2.6l.1-.1c.9-.5 1.6-.1 2.3 1l2.1 3.2c.2.3.5.3.8.2s.3-.5.2-.8l-2.1-3.2c-1.1-1.5-2.4-2.2-3.9-1.3l-.2.1c-1.2.9-1.4 2.7-.4 4.2l2.5 3.8c.8 1.2 2.4 1.5 3.6.7l.1-.1c.5-.4.9-.9 1-1.5.1-.3-.1-.6-.4-.7-.2-.1-.5.1-.6.4z"/><path d="m-196.4 268.8c-1.2.7-2 1.9-2.1 3.9 0 .3.2.6.6.6.3 0 .6-.2.6-.6.1-1.7.8-2.7 1.9-3.1.6-.2 1.2-.3 1.8-.2h.1c.7.1 1-1 .2-1.1l-4.5-1c-2.1-.6-2.4-1.3-2-2.6.2-.6.5-.9 1-1 .3-.1.7-.1 1.1 0h.2l6.8 1.6h.1c.1.1.2.1.3.3.5.5.7 1.4.6 2.9-.4 5.3-2.9 8.5-8.7 8.5-.3 0-.6.3-.6.6s.3.6.6.6c6.6.1 9.4-3.8 9.9-9.6.2-1.8-.2-3-.9-3.8-.4-.4-.8-.6-1.1-.6l-6.7-1.6s-.2 0-.3-.1c-.5-.1-1-.1-1.5 0-.9.2-1.6.8-1.9 1.8-.6 1.9 0 3.3 2.9 4.1z"/></g></g></svg>