<?xml version="1.0" encoding="utf-8"?>
<!-- Generator: Adobe Illustrator 19.0.0, SVG Export Plug-In . SVG Version: 6.00 Build 0)  -->
<svg version="1.1" id="Layer_1" xmlns="http://www.w3.org/2000/svg" xmlns:xlink="http://www.w3.org/1999/xlink" x="0px" y="0px"
	 width="110px" height="64px" viewBox="0 0 110 64" enable-background="new 0 0 110 64" xml:space="preserve">
<g id="XMLID_1_">
	<g id="g14">
		<g id="XMLID_6_">
			<g id="g16">
				<path id="path22" fill="#201D1C" d="M12.6,36c-1,0.9-2.3,1.3-4.3,1.3H7.4V26.7h0.8c2,0,3.3,0.4,4.3,1.3c1.1,1,1.7,2.5,1.7,4
					C14.3,33.5,13.6,35,12.6,36z M8.9,23.9H4.3V40h4.6c2.4,0,4.2-0.6,5.7-1.9c1.8-1.5,2.9-3.8,2.9-6.2C17.5,27.2,14,23.9,8.9,23.9"
					/>
				<path id="path24" fill="#201D1C" d="M19,40h3.1V23.9H19V40z"/>
				<path id="path26" fill="#201D1C" d="M29.8,30.1c-1.9-0.7-2.4-1.2-2.4-2c0-1,1-1.8,2.3-1.8c0.9,0,1.7,0.4,2.5,1.3l1.6-2.1
					c-1.3-1.2-3-1.8-4.7-1.8c-2.8,0-5,2-5,4.6c0,2.2,1,3.3,4,4.4c1.2,0.4,1.9,0.7,2.2,0.9c0.6,0.4,0.9,1,0.9,1.7
					c0,1.3-1,2.3-2.4,2.3c-1.5,0-2.7-0.7-3.4-2.1l-2,1.9c1.4,2.1,3.2,3.1,5.6,3.1c3.3,0,5.5-2.2,5.5-5.3
					C34.4,32.6,33.3,31.4,29.8,30.1"/>
				<path id="path28" fill="#201D1C" d="M35.4,32c0,4.7,3.7,8.4,8.5,8.4c1.3,0,2.5-0.3,3.9-0.9v-3.7c-1.3,1.3-2.4,1.8-3.8,1.8
					c-3.2,0-5.4-2.3-5.4-5.5c0-3.1,2.3-5.5,5.2-5.5c1.5,0,2.6,0.5,3.9,1.8v-3.7c-1.4-0.7-2.5-1-3.9-1C39.2,23.6,35.4,27.3,35.4,32"
					/>
				<path id="path30" fill="#201D1C" d="M72.6,34.7l-4.3-10.8h-3.4l6.8,16.5h1.7l6.9-16.5h-3.4L72.6,34.7"/>
				<path id="path32" fill="#201D1C" d="M81.8,40h8.9v-2.7h-5.8V33h5.5v-2.7h-5.5v-3.6h5.8V24h-8.9V40"/>
				<path id="path34" fill="#201D1C" d="M96.8,31.3h-0.9v-4.9h1c2,0,3,0.8,3,2.4C99.8,30.5,98.8,31.3,96.8,31.3z M103,28.7
					c0-3-2.1-4.7-5.7-4.7h-4.6v16h3.1v-6.5h0.4l4.3,6.5h3.9l-5.1-6.8C101.7,32.8,103,31.1,103,28.7"/>
				<path id="path36" fill="#201D1C" d="M104.4,24.7L104.4,24.7l-0.1-0.4h0.1c0.2,0,0.3,0.1,0.3,0.2
					C104.7,24.7,104.6,24.7,104.4,24.7z M105,24.5c0-0.3-0.2-0.4-0.5-0.4H104v1.4h0.3V25l0.4,0.5h0.4l-0.5-0.6
					C104.9,24.9,105,24.7,105,24.5"/>
				<path id="path38" fill="#201D1C" d="M104.6,25.8c-0.5,0-1-0.4-1-1s0.4-1,1-1c0.5,0,1,0.5,1,1C105.5,25.4,105.1,25.8,104.6,25.8z
					 M104.6,23.6c-0.7,0-1.2,0.5-1.2,1.2s0.6,1.2,1.2,1.2c0.7,0,1.2-0.6,1.2-1.2C105.8,24.1,105.2,23.6,104.6,23.6"/>
			</g>
		</g>
	</g>
	<circle id="XMLID_2_" fill="#F96611" cx="57.4" cy="32" r="8.3"/>
</g>
</svg>
