<?xml version="1.0" encoding="utf-8"?>
<!-- Generator: Adobe Illustrator 19.0.0, SVG Export Plug-In . SVG Version: 6.00 Build 0)  -->
<svg version="1.1" id="Layer_1" xmlns="http://www.w3.org/2000/svg" xmlns:xlink="http://www.w3.org/1999/xlink" x="0px" y="0px"
	 width="110px" height="64px" viewBox="0 0 110 64" style="enable-background:new 0 0 110 64;" xml:space="preserve">
<style type="text/css">
	.st0{fill-rule:evenodd;clip-rule:evenodd;fill:#2B4A9F;}
	.st1{fill-rule:evenodd;clip-rule:evenodd;fill:#221B1F;}
	.st2{fill:#221B1F;}
</style>
<title>amex</title>
<desc>Created with Sketch.</desc>
<path class="st0" d="M42.8,5.4h27.1h1.4c2,0,3.6,1.7,3.6,3.9v1.8c0,2.6-3.5,2.6-3.5,0v-1c0-0.6-0.5-1.2-1.2-1.2H41.7
	c-0.6,0-1.2,0.5-1.2,1.2v1c0,2.6-3.4,2.6-3.4,0.1V9.2c0-2.1,1.6-3.9,3.6-3.9H42.8L42.8,5.4z M55.9,48.4h18.5c4.2,0,4.3-4.5,3.8-6.7
	c-0.2-1.5-2.8-1.5-3,0v1.7c0,0.8-0.6,1.4-1.4,1.4H55.9h-1.4H38.2c-0.8,0-1.4-0.6-1.4-1.4v-1.7c-0.3-1.5-2.8-1.5-3,0
	c-0.4,2.2-0.4,6.7,3.8,6.7h16.9H55.9z"/>
<path class="st1" d="M67.3,25.1h3v0c1.3-0.2,2.4-1.4,2.4-2.8v0c0-1.5-1.3-2.8-2.8-2.8h-5.9v14.7h7.5c1.6,0,2.9-1.3,2.9-2.9l0,0
	c0-1.6-1.3-2.9-2.9-2.9h-1.2v0h-3c-0.9,0-1.6-0.7-1.6-1.6l0,0C65.7,25.9,66.4,25.1,67.3,25.1L67.3,25.1z M74.3,26.6
	c2,0.9,3.3,2.9,3.3,5.1l0,0c0,3.1-2.7,5.7-6,5.7h-9.3c-0.9,0-1.6-0.7-1.6-1.5V18.1c0-0.9,0.7-1.6,1.6-1.6H70c3.3,0,5.9,2.7,5.9,5.9
	l0,0C75.9,24.1,75.3,25.5,74.3,26.6z"/>
<path class="st2" d="M44,53.9c0-0.3,0.2-0.5,0.5-0.5c0.3,0,0.5,0.2,0.5,0.5v2.7v0h0c0,0.6-0.3,1.2-0.7,1.6c-0.4,0.4-1,0.7-1.6,0.7v0
	h0h0v0c-0.6,0-1.2-0.3-1.6-0.7c-0.4-0.4-0.7-1-0.7-1.6h0v0v-2.7c0-0.3,0.2-0.5,0.5-0.5c0.3,0,0.5,0.2,0.5,0.5v2.7v0h0
	c0,0.3,0.1,0.7,0.4,0.9c0.2,0.2,0.5,0.4,0.9,0.4v0h0h0v0c0.3,0,0.7-0.1,0.9-0.4c0.2-0.2,0.4-0.5,0.4-0.9h0v0V53.9z"/>
<path class="st2" d="M48.7,57.8c0.3,0,0.5,0.2,0.5,0.5c0,0.3-0.2,0.5-0.5,0.5h-1.4h0v0c-0.5,0-1-0.2-1.3-0.6
	c-0.3-0.3-0.5-0.8-0.5-1.3h0v0v-3.1c0-0.3,0.2-0.5,0.5-0.5c0.3,0,0.5,0.2,0.5,0.5v3.1v0h0c0,0.2,0.1,0.5,0.3,0.6
	c0.2,0.2,0.4,0.3,0.6,0.3v0h0H48.7z"/>
<path class="st2" d="M59.2,35.5c0.1,1-0.6,1.9-1.7,2.1c-1,0.1-1.9-0.6-2.1-1.7L54,21.8l-5.4,13.8l0,0l0,0v0l0,0l0,0l0,0l0,0l0,0l0,0
	l0,0l0,0l0,0c-0.1,0.2-0.2,0.4-0.4,0.5l0,0l0,0c-0.1,0.1-0.2,0.2-0.3,0.2l0,0l0,0l0,0l0,0l0,0l0,0l0,0l0,0l0,0l0,0l0,0l0,0l0,0l0,0
	l0,0l0,0c-0.2,0.1-0.4,0.1-0.5,0.1l0,0l0,0h0h0l0,0l0,0c-0.2,0-0.4,0-0.6-0.1l0,0l0,0l0,0l0,0l0,0l0,0l0,0l0,0l0,0l0,0l0,0l0,0
	c-0.1-0.1-0.2-0.1-0.3-0.2l0,0c0,0,0,0-0.1-0.1l0,0c0,0,0,0,0,0c0,0,0,0,0,0l0,0c0,0,0,0-0.1-0.1l0,0c-0.1-0.1-0.1-0.2-0.2-0.3l0,0
	l0,0l0,0l0,0l0,0l0,0l0,0l0,0l0,0l0,0l0,0l0,0l-5.4-13.8l-1.5,14.1c-0.1,1-1,1.8-2.1,1.7c-1-0.1-1.8-1-1.7-2.1l1.8-16.6l0,0l0,0l0,0
	c0-0.2,0.1-0.4,0.1-0.6c0.1-0.2,0.1-0.4,0.2-0.5c0.5-0.9,1.3-1.5,2.3-1.6l0,0c0,0,0.1,0,0.1,0c0.2,0,0.3,0,0.5,0l0,0v0
	c0.2,0,0.4,0,0.6,0.1c1,0.2,1.8,0.9,2.2,1.9l4.6,11.7l4.6-11.7c0.4-1,1.2-1.7,2.2-1.9c0.2,0,0.4-0.1,0.6-0.1v0l0,0
	c0.2,0,0.3,0,0.5,0c0,0,0.1,0,0.1,0l0,0c1,0.1,1.9,0.7,2.3,1.6c0.1,0.2,0.2,0.4,0.2,0.5c0.1,0.2,0.1,0.4,0.1,0.6l0,0l0,0l0,0
	L59.2,35.5z"/>
<path class="st2" d="M40.3,58.2c0,0.3-0.2,0.5-0.4,0.6c-0.3,0-0.5-0.2-0.6-0.4l-0.4-3.6l-1.5,3.5c-0.1,0.3-0.4,0.4-0.7,0.3
	c-0.1-0.1-0.2-0.1-0.3-0.3h0l-1.5-3.5l-0.4,3.6c0,0.3-0.3,0.5-0.6,0.4c-0.3,0-0.5-0.3-0.4-0.6l0.5-4.2c0-0.3,0.2-0.5,0.4-0.6
	c0,0,0.1,0,0.1,0c0,0,0,0,0,0c0,0,0.1,0,0.1,0v0l0,0l0,0c0.3,0,0.5,0.1,0.7,0.2c0,0,0.1,0.1,0.1,0.1c0,0,0,0.1,0.1,0.1
	c0,0,0,0,0,0.1l1.3,3l1.3-3c0.1-0.2,0.3-0.4,0.6-0.5c0,0,0.1,0,0.1,0c0,0,0.1,0,0.1,0l0,0h0c0,0,0,0,0,0l0,0l0,0l0,0
	c0.3,0,0.5,0.2,0.6,0.4h0c0,0,0,0.1,0.1,0.1c0,0,0,0.1,0,0.1c0,0,0,0,0,0.1l0,0L40.3,58.2z"/>
<path class="st2" d="M50.9,58.3c0,0.3-0.2,0.5-0.5,0.5c-0.3,0-0.5-0.2-0.5-0.5v-3.9h-1.4c-0.3,0-0.5-0.2-0.5-0.5
	c0-0.3,0.2-0.5,0.5-0.5h1.9h1.9c0.3,0,0.5,0.2,0.5,0.5c0,0.3-0.2,0.5-0.5,0.5h-1.4V58.3z"/>
<path class="st2" d="M54,58.3c0,0.3-0.2,0.5-0.5,0.5c-0.3,0-0.5-0.2-0.5-0.5v-4.4c0-0.3,0.2-0.5,0.5-0.5c0.3,0,0.5,0.2,0.5,0.5V58.3
	z"/>
<path class="st2" d="M64.2,58.2c0,0.3-0.2,0.5-0.4,0.6c-0.3,0-0.5-0.2-0.6-0.4L63,56.9h-1.7c-0.3,0-0.5-0.2-0.5-0.5
	c0-0.3,0.2-0.5,0.5-0.5h1.6l0-0.4l0,0c0,0,0,0,0,0c0-0.1,0-0.2-0.1-0.3c0-0.1-0.1-0.2-0.1-0.3c-0.2-0.4-0.6-0.7-1-0.7l0,0h0v0
	c-0.1,0-0.2,0-0.3,0c-0.1,0-0.1,0-0.2,0.1c-0.4,0.2-0.6,0.6-0.7,1.1l-0.3,2.8c0,0.3-0.3,0.5-0.5,0.4c-0.3,0-0.5-0.3-0.4-0.5l0.3-2.8
	c0.1-0.8,0.5-1.5,1.2-1.9c0.1-0.1,0.3-0.1,0.4-0.2c0.2,0,0.3-0.1,0.5-0.1v0h0l0,0c0.9,0,1.5,0.5,1.9,1.2c0.1,0.1,0.1,0.3,0.2,0.4
	c0,0.1,0.1,0.3,0.1,0.4c0,0,0,0,0,0l0,0L64.2,58.2z"/>
<path class="st2" d="M65.7,58.3c0,0.3-0.2,0.5-0.5,0.5s-0.5-0.2-0.5-0.5v-4.1v0c0,0,0-0.1,0-0.1c0-0.1,0-0.1,0-0.2l0,0l0,0
	c0,0,0-0.1,0-0.1l0,0l0,0c0.1-0.2,0.2-0.3,0.4-0.3c0,0,0,0,0.1,0c0,0,0,0,0.1,0l0,0v0c0,0,0.1,0,0.1,0h0h0h0c0.2,0,0.4,0.1,0.5,0.3
	l2.7,3.4v-3.3c0-0.3,0.2-0.5,0.5-0.5c0.3,0,0.5,0.2,0.5,0.5V58c0,0.2-0.1,0.4-0.3,0.5c0,0-0.1,0-0.1,0.1c0,0,0,0-0.1,0l0,0l0,0
	c0,0,0,0,0,0l0,0v0h0l0,0l0,0c-0.2,0.1-0.4,0-0.5,0c0,0,0,0-0.1,0c0,0-0.1,0-0.1-0.1c0,0,0,0-0.1-0.1l0,0l0,0l0,0l0,0L65.7,55V58.3z
	"/>
<path class="st2" d="M73.5,57.8c0.3,0,0.5,0.2,0.5,0.5c0,0.3-0.2,0.5-0.5,0.5H72h0v0c-0.5,0-1-0.2-1.4-0.6c-0.4-0.4-0.6-0.8-0.6-1.4
	h0v0v-1.5v0h0c0-0.5,0.2-1,0.6-1.4c0.4-0.4,0.8-0.6,1.4-0.6v0h0h1.5c0.3,0,0.5,0.2,0.5,0.5c0,0.3-0.2,0.5-0.5,0.5H72h0v0
	c-0.3,0-0.5,0.1-0.7,0.3c-0.2,0.2-0.3,0.4-0.3,0.7h0v0v1.5v0h0c0,0.3,0.1,0.5,0.3,0.7c0.2,0.2,0.4,0.3,0.7,0.3v0h0H73.5z"/>
<path class="st2" d="M76.4,53.4L76.4,53.4L76.4,53.4c0.6,0,1.2,0.3,1.6,0.7c0.4,0.4,0.7,1,0.7,1.6h0v0v0.9v0h0
	c0,0.6-0.3,1.2-0.7,1.6c-0.4,0.4-1,0.7-1.6,0.7v0h0h0v0c-0.6,0-1.2-0.3-1.6-0.7c-0.4-0.4-0.7-1-0.7-1.6h0v0v-0.9v0h0
	c0-0.6,0.3-1.2,0.7-1.6C75.2,53.6,75.8,53.4,76.4,53.4L76.4,53.4L76.4,53.4L76.4,53.4z M76.4,54.4L76.4,54.4L76.4,54.4L76.4,54.4
	L76.4,54.4c-0.4,0-0.7,0.1-0.9,0.4c-0.2,0.2-0.4,0.5-0.4,0.9h0v0v0.9v0h0c0,0.3,0.1,0.7,0.4,0.9c0.2,0.2,0.6,0.4,0.9,0.4v0h0h0v0
	c0.4,0,0.7-0.1,0.9-0.4c0.2-0.2,0.4-0.5,0.4-0.9h0v0v-0.9v0h0c0-0.3-0.1-0.7-0.4-0.9C77.1,54.5,76.8,54.4,76.4,54.4z"/>
<path class="st2" d="M54.4,56v-2.2v0c0-0.1,0-0.1,0-0.2c0-0.1,0.1-0.1,0.1-0.2l0,0l0,0c0.1-0.1,0.2-0.1,0.3-0.1c0,0,0,0,0,0v0h0h1.9
	h0v0c0.4,0,0.8,0.2,1.1,0.5c0.3,0.3,0.5,0.7,0.5,1.1h0v0v0v0h0c0,0.3-0.1,0.6-0.2,0.8c0.1,0.1,0.2,0.1,0.3,0.2c0,0,0,0,0,0
	c0.3,0.3,0.4,0.7,0.4,1.1h0v0l0,0v0h0c0,0.4-0.2,0.9-0.5,1.1c-0.3,0.3-0.7,0.5-1.1,0.5v0h0h-2.4c-0.3,0-0.5-0.2-0.5-0.5V56L54.4,56z
	 M55.4,54.4V56v1.8h1.9h0v0c0.2,0,0.3-0.1,0.4-0.2c0.1-0.1,0.2-0.3,0.2-0.4h0v0l0,0v0h0c0-0.2-0.1-0.3-0.2-0.4l0,0
	c-0.1-0.1-0.3-0.2-0.4-0.2v0h0h-0.5h0h-0.2c-0.3,0-0.5-0.2-0.5-0.5l0,0c0-0.3,0.2-0.5,0.5-0.5h0.2h0h0c0.1,0,0.3-0.1,0.4-0.2l0,0
	l0,0c0.1-0.1,0.2-0.3,0.2-0.4h0v0v0v0h0c0-0.2-0.1-0.3-0.2-0.4c-0.1-0.1-0.3-0.2-0.4-0.2v0h0H55.4z"/>
</svg>
