<?xml version="1.0" standalone="no"?><!DOCTYPE svg PUBLIC "-//W3C//DTD SVG 1.1//EN" "http://www.w3.org/Graphics/SVG/1.1/DTD/svg11.dtd"><svg width="100%" height="100%" viewBox="0 0 800 800" version="1.1" xmlns="http://www.w3.org/2000/svg" xmlns:xlink="http://www.w3.org/1999/xlink" xml:space="preserve" style="fill-rule:evenodd;clip-rule:evenodd;stroke-linejoin:round;stroke-miterlimit:1.41421;"><clipPath id="_clip1"><rect id="Artboard1" x="0" y="0" width="800" height="800"/></clipPath><g clip-path="url(#_clip1)"><path d="M174.969,397.768c1.202,-122.49 101.017,-221.563 223.789,-221.563c60.889,0 116.131,24.369 156.497,63.877l44.592,-44.591c-51.785,-50.924 -122.795,-82.357 -201.089,-82.357c-158.329,0 -286.872,128.543 -286.872,286.872c0,158.329 128.543,286.872 286.872,286.872c90.261,0 170.841,-41.776 223.443,-107.03l40.361,40.36c-63.066,75.454 -157.87,123.485 -263.804,123.485c-189.686,0 -343.687,-154.001 -343.687,-343.687c0,-189.686 154.001,-343.687 343.687,-343.687c114.391,0 215.804,56.006 278.291,142.07l-40.776,40.776l-0.022,-0.034l-45.641,45.641l0.021,0.035l-41.393,41.393c-27.312,-55.531 -84.464,-93.784 -150.48,-93.784c-91.748,0 -166.375,73.885 -167.575,165.352l-0.016,0l0,2.238l-56.198,0l0,-2.238Z" style="fill:#000;"/></g></svg>