<svg enable-background="new -219 244 110 64" height="64" viewBox="-219 244 110 64" width="110" xmlns="http://www.w3.org/2000/svg"><path clip-rule="evenodd" d="m-193.9 278.1h8.5l-.3 1.9-7.1 6.8h6l-.4 2h-8.7l.3-2.1 6.8-6.5h-5.4z" fill="#c31c2a" fill-rule="evenodd"/><path clip-rule="evenodd" d="m-203.1 274.8c-.2-.2-.4-.3-.7-.5-.3-.1-.6-.2-1-.3s-.8-.1-1.1-.1-.4 0-.4 0h-3.7-2.8l-2.5 14.9h2.3l.9-5.5h4.5s1.7.1 3-.6c1.2-.7 1.6-2.1 1.6-2.1s.1-.6.2-1.2c.1-.7.2-1.6.3-2.1 0-.2 0-.3 0-.3s0-.2 0-.4c0-.3 0-.8-.3-1.3-.1-.2-.2-.4-.3-.5zm-1.8 2.6s-.2 1.2-.5 2.6c-.1.5-.5.8-1 .9-.8.2-1.6.1-1.6.1h-3.7l.8-4.9h3.4.5c.4 0 .8 0 1.2.1.3 0 .6.1.7.2s.2.3.2.5z" fill="#c31c2a" fill-rule="evenodd"/><path clip-rule="evenodd" d="m-173.9 273.9h2.2l-2.5 14.9h-2.2z" fill="#c31c2a" fill-rule="evenodd"/><path clip-rule="evenodd" d="m-162.1 278.1h2.1l.8 7.5 3.3-7.5h2.6l.8 7.6 3.2-7.6h2.2l-4.7 10.7h-2.6l-.7-7.5-3.3 7.5h-2.6z" fill="#c31c2a" fill-rule="evenodd"/><path d="m-178 278.2c-.6-.2-1.7-.2-2.6-.2s-1.3.1-1.6.1c0 0-1.6.2-2.5 1.3s-1.2 3.5-1.2 3.5-.5 2.7-.4 3.6c.2.9.4 1.7 1.4 2.1s1.9.4 1.9.4 1.8.1 3.1-.2c1.4-.3 2.1-1.3 2.1-1.3s.3-.4.5-.9.3-.8.3-.9l.1-.6h-2.3s-.1 1.5-1.4 1.7c-1.2.1-1.9.1-2.1.1s-1.6 0-1.5-1.1c0 0 0 0 0-.1.1-1.3.2-1.6.2-1.6h7.2l.3-1.8c.6-2 .3-3.5-1.5-4.1zm-.5 3.9h-4.9l.2-.8s.2-.6.5-.9.8-.3 1.2-.3 1.5-.1 2.4.1c.3.1.6.2.7.5.1.5-.1 1.4-.1 1.4z" fill="#c31c2a"/><path d="m-164.4 278.2c-.6-.2-1.7-.2-2.6-.2s-1.3.1-1.6.1c0 0-1.6.2-2.5 1.3s-1.2 3.5-1.2 3.5-.5 2.7-.4 3.6c.2.9.4 1.7 1.4 2.1s1.9.4 1.9.4 1.8.1 3.1-.2c1.4-.3 2.1-1.3 2.1-1.3s.3-.4.5-.9.3-.8.3-.9l.1-.6h-2.3s-.1 1.5-1.4 1.7c-1.2.1-1.9.1-2.1.1s-1.6 0-1.5-1.1c0 0 0 0 0-.1.1-1.3.2-1.6.2-1.6h7.2l.3-1.8c.6-2 .3-3.5-1.5-4.1zm-.5 3.9h-4.9l.2-.8s.2-.6.5-.9.8-.3 1.2-.3 1.5-.1 2.4.1c.3.1.6.2.7.5.1.5-.1 1.4-.1 1.4z" fill="#c31c2a"/><g clip-rule="evenodd" fill-rule="evenodd"><path d="m-144.5 278.1 1.4 7.9 4-7.9h2.3l-5.8 11.2s-1 2-1.7 2.5-1 .7-1.6.8c-.5.1-.7.1-1.3 0l-.5-.1.3-2s.9.2 1.4 0 1-1.1 1-1.1l.3-.5-2.1-10.9z" fill="#c31c2a"/><path d="m-136 279.2h2.3l.1-.9s.2-1.6.8-1.9c.2-.1.5-.2.8-.3.6-.1 1.4-.1 2-.1 1 0 1.3 0 2.3.2 1 .1.7 1.1.7 1.1l-.2 1.4s-.1.6-.3 1-.8.6-1.1.7c-.8.3-3.4.9-3.4.9l-2.1.6s-1.3.4-2 1.2-1 1.7-1.1 2.1c-.1.5-.6 3.7-.6 3.7h11.2l.4-2.2h-8.8l.2-.9s.1-.9.5-1.2c.1-.1.2-.2.9-.5.4-.1 1.9-.5 1.9-.5l3.3-.9s1.8-.5 2.5-1.5 1-2.9 1-2.9.2-1.8 0-2.4c-.1-.6-.7-1.3-1.4-1.6s-1.4-.5-3.4-.4c-2 0-3 .1-4 .5s-1.6 1.1-2 2c-.3.8-.5 2.8-.5 2.8z" fill="#a4a2a2"/><path d="m-115 283.3 1.6-9.4h-2.8l-8.6 9.3-.4 2.3h7.5l-.6 3.3h2.3l.5-3.3h2.1l.4-2.2zm-2.3 0h-4.9l5.9-6.3z" fill="#a4a2a2"/><path d="m-198.2 275.2h7.1s1.6-1.3 2.7-2.1 3.2-2.1 3.2-2.1l-4-1.9s-3.4 2.1-4.8 3.1c-1.5.8-4.2 3-4.2 3z" fill="#a4a2a2"/><path d="m-183 269.6-3.3-2.2s3-1.7 6.9-3.3c4-1.6 6.1-2.2 6.1-2.2l.7 3.1s-3.8 1.3-6 2.3-4.4 2.3-4.4 2.3z" fill="#a4a2a2"/><path d="m-170.1 264.3-.6-3.2s4.1-1.1 7.8-1.8 8.7-1 8.7-1l-1.6 5s-4.3-.6-8.4 0c-3.3.3-5.9 1-5.9 1z" fill="#a4a2a2"/><path d="m-153.3 263.7 2.8-5.5s6-.1 11.2.7 9.9 2 9.8 2.1l-13.2 6.9s-3.1-1.9-6.9-3.1c-2.1-.7-3.7-1.1-3.7-1.1z" fill="#a4a2a2"/><path d="m-140.3 269.3 2.9 2.2h23.8s0-.8-.7-1.9c-.4-.7-1.1-1.4-1.9-2.2-.3-.3-1.4-1.1-2.2-1.7-2.1-1.4-3.3-1.9-5.4-2.9z" fill="#a4a2a2"/></g><path d="m-196.7 278.1c-.9 0-1.7.4-2.5.7l.1-.7h-2.4l-1.9 10.7h2.4l1-5.9c.2-1.2 1.1-2.7 2.9-2.7h1.2l.4-2.1z" fill="#c31c2a"/></svg>